<?xml version="1.0" encoding="utf-8"?>
<!-- Generator: Adobe Illustrator 25.0.0, SVG Export Plug-In . SVG Version: 6.00 Build 0)  -->
<svg version="1.1" id="Layer_1" xmlns="http://www.w3.org/2000/svg" xmlns:xlink="http://www.w3.org/1999/xlink" x="0px" y="0px"
	 viewBox="0 0 72 72" style="enable-background:new 0 0 72 72;" xml:space="preserve">
<style type="text/css">
	.st0{fill:#241F55;}
	.st1{fill:#7767D8;}
	.st2{fill:#F7F7F7;}
	.st3{fill:#F99D27;}
	.st4{fill:#504C77;}
	.st5{fill:#7C7999;}
	.st6{fill:#A7A5BB;}
	.st7{fill:#D3D2DD;}
	.st8{fill:#5546AF;}
	.st9{fill:#776BBF;}
	.st10{fill:#9990CF;}
	.st11{fill:#BBB5DF;}
	.st12{fill:#DDDAEF;}
	.st13{fill:#461E5F;}
	.st14{fill:#6B4B7F;}
	.st15{fill:#90789F;}
	.st16{fill:#B5A5BF;}
	.st17{fill:#DAD2DF;}
	.st18{fill:#B92A5A;}
	.st19{fill:#C7557B;}
	.st20{fill:#D57F9C;}
	.st21{fill:#E3AABD;}
	.st22{fill:#F1D4DE;}
	.st23{fill:#FAB152;}
	.st24{fill:#FBC47D;}
	.st25{fill:#FDD8A9;}
	.st26{fill:#FEEBD4;}
	.st27{fill:#E86E34;}
	.st28{fill:#ED8B5D;}
	.st29{fill:#F1A885;}
	.st30{fill:#F6C5AE;}
	.st31{fill:#FAE2D6;}
	.st32{fill:#A0A0A0;}
	.st33{fill:#B3B3B3;}
	.st34{fill:#C6C6C6;}
	.st35{fill:#D9D9D9;}
	.st36{fill:#ECECEC;}
	.st37{fill:#CCCCCC;}
	.st38{fill:#4D4395;}
	.st39{fill:#0F0052;}
	.st40{fill:#FF7734;}
	.st41{fill:#B92959;}
	.st42{fill:#2D0E75;}
	.st43{fill:#331579;}
	.st44{fill:#F99D27;stroke:#F99D27;stroke-miterlimit:10;}
	.st45{fill:#FFFFFF;}
	.st46{opacity:0.25;}
	.st47{fill:none;stroke:#B9335D;stroke-width:1.5039;stroke-miterlimit:10;}
	.st48{fill:none;stroke:#B9335D;stroke-width:1.5039;stroke-miterlimit:10;stroke-dasharray:0.9777,0.9777;}
	.st49{fill:#331579;stroke:#331579;stroke-linecap:round;stroke-linejoin:round;stroke-miterlimit:10;}
	.st50{fill:#F99D27;stroke:#F99D27;stroke-linecap:round;stroke-linejoin:round;stroke-miterlimit:10;}
	.st51{fill:none;stroke:#331579;stroke-width:2.5;stroke-linecap:round;stroke-miterlimit:10;stroke-dasharray:3.7616,3.7616;}
</style>
<g>
	<path class="st43" d="M28.64,15.44L28.64,15.44c0.12-0.01,3.57-2.24,5.2-3.29c1.84-0.84,2.72,0.79,2.96,1.43
		c0.13,0.47,0.07,1.34-0.31,1.81c-0.4,0.5-1.02,0.8-1.33,1.01c0,0-17.89,11.39-20.36,12.98c-0.55,0.35-0.56,0.67-0.04,1.02
		c1.47,1.01,2.95,2.02,4.42,3.04c3.15,2.19,10.84,7.56,11.58,8c0.53,0.32,1.2,0.08,1.5-0.43c0.26-0.44,0.17-1.31-0.2-1.54
		c-2.13-1.35-4.14-2.87-6.23-4.28c-1.54-1.05-3.09-2.1-4.6-3.19c-1.42-1.03-1.34-2.86,0.13-3.8c2.25-1.44,12.11-7.79,12.48-7.98
		c0.09-0.05,0.39-0.13,0.49-0.12c1,0.02,1.73,0.31,2.16,1.29c0.38,0.87,0.24,1.71-0.45,2.41c-3.07,1.98-6.15,3.95-9.22,5.93
		c-0.77,0.5-0.77,0.5-0.04,1c2.49,1.73,4.99,3.45,7.47,5.19c2.26,1.59,3.01,4.36,1.87,6.81c-1.2,2.58-4.38,3.77-6.96,2.6
		c-0.26-0.12-17.59-12.06-17.92-12.35c-0.69-0.62-1.26-1.76-1.16-3.48c0.02-1.37,1.11-2.71,1.26-2.83c0.17-0.15,0.56-0.51,0.88-0.72
		C13.44,25.15,28.55,15.67,28.64,15.44z"/>
	<path class="st3" d="M37.75,32.41c2.48,1.74,10.17,6.75,12.66,8.48c0.73,0.51,0.52,1.16-0.25,1.66c-3.07,1.98-4.87,3.3-7.94,5.28
		c-0.69,0.7-0.82,1.53-0.45,2.41c0.42,0.98,1.15,1.27,2.16,1.29c0.1,0.01,0.4-0.08,0.49-0.12c0.37-0.2,10.23-6.54,12.48-7.98
		c1.47-0.94,1.55-2.77,0.13-3.8c-1.51-1.09-3.06-2.14-4.6-3.19c-1.86-1.27-9.94-5.89-11.82-7.13c-1.45,0.48-1.29,0.71-2.8,1.02
		C38.19,30.97,37.07,31.93,37.75,32.41z"/>
	<path class="st43" d="M43.36,56.56L43.36,56.56c-0.12,0.01-3.57,2.24-5.2,3.29c-1.84,0.84-2.72-0.79-2.96-1.43
		c-0.13-0.47-0.07-1.34,0.31-1.81c0.4-0.5,1.02-0.8,1.33-1.01c0,0,17.89-11.39,20.36-12.98c0.55-0.35,0.56-0.67,0.04-1.02
		c-1.47-1.01-2.95-2.02-4.42-3.04c-3.15-2.19-10.84-7.56-11.58-8c-0.53-0.32-1.2-0.08-1.5,0.43c-0.26,0.44-0.17,1.31,0.2,1.54
		c2.13,1.35,4.14,2.87,6.23,4.28c1.54,1.05,3.09,2.1,4.6,3.19c1.42,1.03,1.34,2.86-0.13,3.8c-2.25,1.44-12.11,7.79-12.48,7.98
		c-0.09,0.05-0.39,0.13-0.49,0.12c-1-0.02-1.73-0.31-2.16-1.29c-0.38-0.87-0.24-1.71,0.45-2.41c3.07-1.98,6.15-3.95,9.22-5.93
		c0.77-0.5,0.77-0.5,0.04-1c-2.49-1.73-4.99-3.45-7.47-5.19c-2.26-1.59-3.01-4.36-1.87-6.81c1.2-2.58,4.38-3.77,6.96-2.6
		c0.26,0.12,17.59,12.06,17.92,12.35c0.69,0.62,1.26,1.76,1.16,3.48c-0.02,1.37-1.11,2.71-1.26,2.83c-0.17,0.15-0.56,0.51-0.88,0.72
		C58.56,46.85,43.45,56.33,43.36,56.56z"/>
</g>
</svg>
