<?xml version="1.0" encoding="utf-8"?>
<!-- Generator: Adobe Illustrator 25.0.0, SVG Export Plug-In . SVG Version: 6.00 Build 0)  -->
<svg version="1.1" id="Layer_1" xmlns="http://www.w3.org/2000/svg" xmlns:xlink="http://www.w3.org/1999/xlink" x="0px" y="0px"
	 viewBox="0 0 72 72" style="enable-background:new 0 0 72 72;" xml:space="preserve">
<style type="text/css">
	.st0{fill:#241F55;}
	.st1{fill:#7767D8;}
	.st2{fill:#F7F7F7;}
	.st3{fill:#F99D27;}
	.st4{fill:#504C77;}
	.st5{fill:#7C7999;}
	.st6{fill:#A7A5BB;}
	.st7{fill:#D3D2DD;}
	.st8{fill:#5546AF;}
	.st9{fill:#776BBF;}
	.st10{fill:#9990CF;}
	.st11{fill:#BBB5DF;}
	.st12{fill:#DDDAEF;}
	.st13{fill:#461E5F;}
	.st14{fill:#6B4B7F;}
	.st15{fill:#90789F;}
	.st16{fill:#B5A5BF;}
	.st17{fill:#DAD2DF;}
	.st18{fill:#B92A5A;}
	.st19{fill:#C7557B;}
	.st20{fill:#D57F9C;}
	.st21{fill:#E3AABD;}
	.st22{fill:#F1D4DE;}
	.st23{fill:#FAB152;}
	.st24{fill:#FBC47D;}
	.st25{fill:#FDD8A9;}
	.st26{fill:#FEEBD4;}
	.st27{fill:#E86E34;}
	.st28{fill:#ED8B5D;}
	.st29{fill:#F1A885;}
	.st30{fill:#F6C5AE;}
	.st31{fill:#FAE2D6;}
	.st32{fill:#A0A0A0;}
	.st33{fill:#B3B3B3;}
	.st34{fill:#C6C6C6;}
	.st35{fill:#D9D9D9;}
	.st36{fill:#ECECEC;}
	.st37{fill:#CCCCCC;}
	.st38{fill:#4D4395;}
	.st39{fill:#0F0052;}
	.st40{fill:#FF7734;}
	.st41{fill:#B92959;}
	.st42{fill:#2D0E75;}
	.st43{fill:#331579;}
	.st44{fill:#F99D27;stroke:#F99D27;stroke-miterlimit:10;}
	.st45{fill:#FFFFFF;}
	.st46{opacity:0.25;}
	.st47{fill:none;stroke:#B9335D;stroke-width:1.5039;stroke-miterlimit:10;}
	.st48{fill:none;stroke:#B9335D;stroke-width:1.5039;stroke-miterlimit:10;stroke-dasharray:0.9777,0.9777;}
	.st49{fill:#331579;stroke:#331579;stroke-linecap:round;stroke-linejoin:round;stroke-miterlimit:10;}
	.st50{fill:#F99D27;stroke:#F99D27;stroke-linecap:round;stroke-linejoin:round;stroke-miterlimit:10;}
	.st51{fill:none;stroke:#331579;stroke-width:2.5;stroke-linecap:round;stroke-miterlimit:10;stroke-dasharray:3.7616,3.7616;}
</style>
<g>
	<path class="st43" d="M47.98,29.97c0.65-1.96,2.16-6.39,2.77-8.49c-0.43-0.18-12.21-4.11-17.5-5.91c-0.38-0.13-0.55-0.06-0.69,0.34
		c-2.66,7.99-10.09,30.15-11.16,33.24c-0.17,0.48-0.14,0.68,0.4,0.86c6.74,2.25,13.47,4.53,20.19,6.81c1.49,0.5,2.31,1.58,2.24,3.11
		c-0.06,1.31-0.71,2.23-2.17,2.78c-0.64,0.24-1.28,0.19-1.9-0.02c-7.16-2.41-14.33-4.8-21.48-7.25c-3.08-1.06-4.49-4.19-3.44-7.33
		c2.91-8.64,11.35-33.85,11.55-34.43c0.44-1.27,0.95-2.47,2.07-3.32c1.71-1.29,3.54-1.57,5.57-0.88c5.85,1.99,11.7,3.96,17.56,5.93
		c1.16,0.39,2.36,0.7,3.27,1.61c1.72,1.72,2.24,3.74,1.48,6.05c-1.01,3.08-2.17,6.29-2.87,8.38c-0.07-0.2-0.15-0.39-0.2-0.59
		c-0.29-1.23-1.31-2.2-2.49-2.37C49.84,28.3,48.64,28.85,47.98,29.97z"/>
	<path class="st3" d="M47.98,29.97c0.66-1.12,1.86-1.67,3.21-1.48c1.18,0.17,2.2,1.15,2.49,2.37c0.05,0.2,0.13,0.4,0.2,0.59
		c0,0,0-0.01,0-0.01c-0.24,0.62-4.16,12.63-5.73,17.33c-0.86,2.58-3.96,4.19-6.61,3.51c-0.31-0.08-4.19-1.42-4.93-1.68
		c-0.62-0.21-0.66-0.28-0.19-0.7c0.89-0.8,1.35-1.81,1.59-2.96c0.18-0.81,0.06-1.62-0.04-2.43c1.49,0.41,2.84,0.84,4.75,1.24
		C43.39,43.89,47.15,32.15,47.98,29.97z"/>
	<path class="st43" d="M29.4,47.42c-0.84-1.77-0.09-3.79,1.71-4.64c1.67-0.78,3.83-0.04,4.57,1.66c0.84,1.94,0.12,3.79-1.63,4.64
		C32.27,49.95,30.32,49.28,29.4,47.42z"/>
</g>
</svg>
