<?xml version="1.0" encoding="utf-8"?>
<!-- Generator: Adobe Illustrator 25.0.0, SVG Export Plug-In . SVG Version: 6.00 Build 0)  -->
<svg version="1.1" id="Layer_1" xmlns="http://www.w3.org/2000/svg" xmlns:xlink="http://www.w3.org/1999/xlink" x="0px" y="0px"
	 viewBox="0 0 72 72" style="enable-background:new 0 0 72 72;" xml:space="preserve">
<style type="text/css">
	.st0{fill:#241F55;}
	.st1{fill:#7767D8;}
	.st2{fill:#F7F7F7;}
	.st3{fill:#F99D27;}
	.st4{fill:#504C77;}
	.st5{fill:#7C7999;}
	.st6{fill:#A7A5BB;}
	.st7{fill:#D3D2DD;}
	.st8{fill:#5546AF;}
	.st9{fill:#776BBF;}
	.st10{fill:#9990CF;}
	.st11{fill:#BBB5DF;}
	.st12{fill:#DDDAEF;}
	.st13{fill:#461E5F;}
	.st14{fill:#6B4B7F;}
	.st15{fill:#90789F;}
	.st16{fill:#B5A5BF;}
	.st17{fill:#DAD2DF;}
	.st18{fill:#B92A5A;}
	.st19{fill:#C7557B;}
	.st20{fill:#D57F9C;}
	.st21{fill:#E3AABD;}
	.st22{fill:#F1D4DE;}
	.st23{fill:#FAB152;}
	.st24{fill:#FBC47D;}
	.st25{fill:#FDD8A9;}
	.st26{fill:#FEEBD4;}
	.st27{fill:#E86E34;}
	.st28{fill:#ED8B5D;}
	.st29{fill:#F1A885;}
	.st30{fill:#F6C5AE;}
	.st31{fill:#FAE2D6;}
	.st32{fill:#A0A0A0;}
	.st33{fill:#B3B3B3;}
	.st34{fill:#C6C6C6;}
	.st35{fill:#D9D9D9;}
	.st36{fill:#ECECEC;}
	.st37{fill:#CCCCCC;}
	.st38{fill:#4D4395;}
	.st39{fill:#0F0052;}
	.st40{fill:#FF7734;}
	.st41{fill:#B92959;}
	.st42{fill:#2D0E75;}
	.st43{fill:#331579;}
	.st44{fill:#F99D27;stroke:#F99D27;stroke-miterlimit:10;}
	.st45{fill:#FFFFFF;}
	.st46{opacity:0.25;}
	.st47{fill:none;stroke:#B9335D;stroke-width:1.5039;stroke-miterlimit:10;}
	.st48{fill:none;stroke:#B9335D;stroke-width:1.5039;stroke-miterlimit:10;stroke-dasharray:0.9777,0.9777;}
	.st49{fill:#331579;stroke:#331579;stroke-linecap:round;stroke-linejoin:round;stroke-miterlimit:10;}
	.st50{fill:#F99D27;stroke:#F99D27;stroke-linecap:round;stroke-linejoin:round;stroke-miterlimit:10;}
	.st51{fill:none;stroke:#331579;stroke-width:2.5;stroke-linecap:round;stroke-miterlimit:10;stroke-dasharray:3.7616,3.7616;}
</style>
<g>
	<g>
		<g>
			<path class="st49" d="M46.94,16.65c-3.29,0-6.4,0.83-9.11,2.29c-0.02,0-0.04,0-0.07,0h-9.6c-0.85,0-1.54,0.69-1.54,1.54
				s0.69,1.54,1.54,1.54h5.43c-1.8,1.72-3.27,3.78-4.31,6.08h-8.89c-0.85,0-1.54,0.69-1.54,1.54c0,0.85,0.69,1.54,1.54,1.54h7.81
				c-0.4,1.55-0.61,3.17-0.61,4.83c0,0.31,0.01,0.61,0.02,0.92h-5.89c-0.85,0-1.54,0.69-1.54,1.54c0,0.85,0.69,1.54,1.54,1.54H28
				c0.43,2.06,1.2,3.99,2.23,5.75h-9.29c-0.85,0-1.54,0.69-1.54,1.54s0.69,1.54,1.54,1.54h11.52c3.55,4,8.72,6.53,14.48,6.53
				c10.67,0,19.35-8.68,19.35-19.35S57.61,16.65,46.94,16.65z M46.94,52.27c-8.97,0-16.27-7.3-16.27-16.27s7.3-16.27,16.27-16.27
				S63.21,27.03,63.21,36S55.91,52.27,46.94,52.27z"/>
		</g>
		<g>
			<path class="st50" d="M15,22.01h7.84c0.85,0,1.54-0.69,1.54-1.54s-0.69-1.54-1.54-1.54H15c-0.85,0-1.54,0.69-1.54,1.54
				S14.15,22.01,15,22.01z"/>
		</g>
		<g>
			<path class="st49" d="M16.84,29.63c0-0.85-0.69-1.54-1.54-1.54H7.25c-0.85,0-1.54,0.69-1.54,1.54c0,0.85,0.69,1.54,1.54,1.54
				h8.06C16.15,31.17,16.84,30.48,16.84,29.63z"/>
		</g>
		<g>
			<path class="st50" d="M17.07,36.92h-5.63c-0.85,0-1.54,0.69-1.54,1.54c0,0.85,0.69,1.54,1.54,1.54h5.63
				c0.85,0,1.54-0.69,1.54-1.54C18.61,37.61,17.92,36.92,17.07,36.92z"/>
		</g>
		<g>
			<path class="st49" d="M15.41,45.74h-4.75c-0.85,0-1.54,0.69-1.54,1.54s0.69,1.54,1.54,1.54h4.75c0.85,0,1.54-0.69,1.54-1.54
				S16.26,45.74,15.41,45.74z"/>
		</g>
	</g>
	<g>
		<path class="st49" d="M47.69,46.04c-1.01,0-2.01-0.16-2.96-0.46c-0.73-0.23-1.13-1.01-0.89-1.74c0.23-0.73,1.02-1.13,1.74-0.89
			c1.37,0.44,2.9,0.43,4.26-0.01c0.73-0.24,1.51,0.16,1.74,0.88c0.24,0.73-0.16,1.51-0.88,1.74C49.73,45.87,48.72,46.03,47.69,46.04
			z M41,42.65c-0.43,0-0.84-0.19-1.12-0.56c-1.21-1.65-1.86-3.61-1.88-5.67c-0.01-0.76,0.61-1.39,1.37-1.39c0,0,0.01,0,0.01,0
			c0.76,0,1.38,0.61,1.38,1.37c0.01,1.47,0.47,2.87,1.34,4.05c0.45,0.62,0.32,1.48-0.29,1.93C41.57,42.56,41.29,42.65,41,42.65z
			 M54.4,42.61c-0.28,0-0.57-0.09-0.81-0.26c-0.62-0.45-0.76-1.31-0.31-1.93c0.86-1.18,1.31-2.59,1.31-4.05
			c0-0.76,0.62-1.43,1.38-1.43s1.38,0.57,1.38,1.33v0.1c0,2.06-0.64,4.02-1.84,5.68C55.25,42.41,54.83,42.61,54.4,42.61z
			 M40.94,32.92c-0.28,0-0.56-0.08-0.8-0.26c-0.62-0.45-0.76-1.31-0.32-1.93c1.18-1.65,2.89-2.91,4.8-3.55
			c0.73-0.24,1.51,0.15,1.75,0.87c0.24,0.73-0.15,1.51-0.87,1.75c-1.37,0.46-2.59,1.36-3.43,2.54
			C41.8,32.72,41.37,32.92,40.94,32.92z M54.35,32.8c-0.42,0-0.84-0.19-1.11-0.56c-0.87-1.16-2.1-2.04-3.48-2.47
			c-0.73-0.23-1.13-1-0.9-1.73c0.23-0.73,1-1.14,1.73-0.9c1.93,0.61,3.65,1.83,4.86,3.46c0.46,0.61,0.33,1.48-0.28,1.93
			C54.92,32.71,54.63,32.8,54.35,32.8z"/>
	</g>
</g>
</svg>
